<svg xmlns="http://www.w3.org/2000/svg" width="1200" height="904" viewBox="0 0 1200 904" role="img" aria-labelledby="title desc">
<title id="title">slime 多轮 loss mask 四条 lane 与 qwen3_5 字符投影</title>
<desc id="desc">上表列出同一段两轮对话在 qwen、qwen3、qwen3_5、distill_qwen 四条 lane 下被训练的文本与 think 块差异；下方两条字符级放大复现 qwen3_5 的结束规则（紧接的换行计入 span）和前缀规则（只排除 &lt;think&gt; 与其后换行），以及跨越 span 起点的换行 token 按有交集即置 1。</desc>
<defs><marker id="arrowMain" viewBox="0 0 10 10" refX="9" refY="5" markerWidth="6" markerHeight="6" orient="auto"><path d="M0 0 L10 5 L0 10 Z" fill="#2563EB"/></marker></defs>
<style>
  text{font-family:"Segoe UI","Microsoft YaHei","PingFang SC",system-ui,sans-serif;fill:#2A313B}
  .ti{font-size:19px;font-weight:700;fill:#1F2430}
  .su{font-size:12px;fill:#747C88}
  .pt{font-size:14px;font-weight:700}
  .tx{font-size:12px;fill:#38414D}
  .sm{font-size:10.5px;fill:#5B6470}
  .cap{font-size:11.5px;fill:#5B6470}
  .mono{font-family:"Cascadia Mono",Consolas,"Courier New",monospace;font-size:10px;fill:#38414D}
  .bit{font-family:"Cascadia Mono",Consolas,"Courier New",monospace;font-size:10px;fill:#38414D;font-weight:700}
  .pos{font-family:"Cascadia Mono",Consolas,"Courier New",monospace;font-size:8.5px;fill:#8A919C}
  .panel{fill:#FBFCFE;stroke:#D9DEE7;stroke-width:1.2}
  .neutral{fill:#fff;stroke:#AEB6C2;stroke-width:1.1}
  .ghost{fill:#F5F7FA;stroke:#D9DEE7;stroke-width:1}
  .acc1{fill:#EAF1FD;stroke:#2563EB;stroke-width:1.3}
  .acc2{fill:#FCF1E6;stroke:#C3651F;stroke-width:1.3}
  .acc2d{fill:#FCF1E6;stroke:#C3651F;stroke-width:1.3;stroke-dasharray:3 2}
  .zoom{fill:#fff;stroke:#747C88;stroke-width:1;stroke-dasharray:4 3}
  .main{fill:none;stroke:#2563EB;stroke-width:1.4;marker-end:url(#arrowMain)}
  .aux{fill:none;stroke:#AEB6C2;stroke-width:1.2;stroke-dasharray:4 3}
</style><rect width="1200" height="904" fill="white"/>
<text x="24" y="32" class="ti" text-anchor="start">同一段对话在真实 Qwen3 模板下：四条 lane 训练的文本不同</text>
<text x="24" y="54" class="su" text-anchor="start">qwen / qwen3 逐段套模板后拼接；qwen3_5 整段渲染后用 offsets 投影；distill_qwen 只取首条与末条 · 蓝：被训练 · 橙：与整段模板渲染不一致或取决于词表</text>
<rect x="20" y="70" width="1160" height="336" rx="8" class="panel"/>
<text x="34" y="92" class="pt" text-anchor="start">lane</text>
<text x="150" y="92" class="pt" text-anchor="start">渲染方式</text>
<text x="440" y="92" class="pt" text-anchor="start">m2 被训练的文本</text>
<text x="760" y="92" class="pt" text-anchor="start">m4 被训练的文本（tool call 体略作 {…}）</text>
<rect x="28" y="106" width="1144" height="66" rx="6" class="neutral"/>
<text x="34" y="128" class="pt" text-anchor="start">qwen（默认）</text>
<text x="150" y="126" class="sm" text-anchor="start">每条消息单独套模板，</text>
<text x="150" y="141" class="sm" text-anchor="start">assistant 前 3 个 token 置 0</text>
<rect x="434" y="114" width="108" height="20" rx="3" class="acc1"/>
<text x="440" y="128" class="mono" text-anchor="start">Hello&lt;|im_end|&gt;↵</text>
<rect x="754" y="114" width="246" height="20" rx="3" class="acc2"/>
<text x="760" y="128" class="mono" text-anchor="start">&lt;tool_call&gt;↵{…}↵&lt;/tool_call&gt;&lt;|im_end|&gt;↵</text>
<text x="434" y="160" class="cap" text-anchor="start">think 块 0 个；m4 缺整段渲染里的空 think 块 · T=54，目标 24</text>
<rect x="28" y="180" width="1144" height="66" rx="6" class="neutral"/>
<text x="34" y="202" class="pt" text-anchor="start">qwen3</text>
<text x="150" y="200" class="sm" text-anchor="start">在虚拟 user 前缀之后套模板，</text>
<text x="150" y="215" class="sm" text-anchor="start">再裁掉前缀</text>
<rect x="434" y="188" width="222" height="20" rx="3" class="acc1"/>
<text x="440" y="202" class="mono" text-anchor="start">&lt;think&gt;↵↵&lt;/think&gt;↵↵Hello&lt;|im_end|&gt;↵</text>
<rect x="754" y="188" width="360" height="20" rx="3" class="acc2"/>
<text x="760" y="202" class="mono" text-anchor="start">&lt;think&gt;↵↵&lt;/think&gt;↵↵&lt;tool_call&gt;↵{…}↵&lt;/tool_call&gt;&lt;|im_end|&gt;↵</text>
<text x="434" y="234" class="cap" text-anchor="start">think 块 2 个：每轮都被当成"最后一个 user 之后"而插入并训练；m2 与整段渲染不一致</text>
<rect x="28" y="254" width="1144" height="66" rx="6" class="ghost"/>
<text x="34" y="276" class="pt" text-anchor="start">qwen3_5</text>
<text x="150" y="274" class="sm" text-anchor="start">整段渲染一次，字符 span</text>
<text x="150" y="289" class="sm" text-anchor="start">经 offsets 投影到 token</text>
<rect x="434" y="262" width="108" height="20" rx="3" class="acc1"/>
<text x="440" y="276" class="mono" text-anchor="start">Hello&lt;|im_end|&gt;↵</text>
<rect x="754" y="262" width="312" height="20" rx="3" class="acc1"/>
<text x="760" y="276" class="mono" text-anchor="start">↵&lt;/think&gt;↵↵&lt;tool_call&gt;↵{…}↵&lt;/tool_call&gt;&lt;|im_end|&gt;↵</text>
<text x="434" y="308" class="cap" text-anchor="start">think 块 1 个，只在最后一轮；token 序列与整段渲染逐项相等（源码有相等校验）· 字符级目标 118 个</text>
<rect x="28" y="328" width="1144" height="66" rx="6" class="neutral"/>
<text x="34" y="350" class="pt" text-anchor="start">distill_qwen</text>
<text x="150" y="348" class="sm" text-anchor="start">首条消息加生成提示为 prompt，</text>
<text x="150" y="363" class="sm" text-anchor="start">最后一条 content 为 response</text>
<rect x="434" y="336" width="128" height="20" rx="3" class="ghost"/>
<text x="440" y="350" class="sm" text-anchor="start">（中间消息不进入输出）</text>
<rect x="754" y="336" width="231" height="20" rx="3" class="acc2"/>
<text x="760" y="350" class="sm" text-anchor="start">content 为空串 → response 0 个 token</text>
<text x="434" y="382" class="cap" text-anchor="start">共 12 个 token 全为 0；response_length=0，loss_mask[-0:] 仍保留 12 位 → converter 的长度断言失败</text>
<rect x="20" y="422" width="1160" height="160" rx="8" class="zoom"/>
<text x="30" y="442" class="pt" text-anchor="start">结束规则（m2）：找到 &lt;|im_end|&gt; 后，紧接的 ↵ 也计入 span，游标移到 113；下一条 &lt;|im_start|&gt;user 不训练</text>
<text x="162" y="468" class="sm" text-anchor="end">字符</text>
<text x="162" y="486" class="sm" text-anchor="end">char_mask</text>
<text x="162" y="518" class="sm" text-anchor="end">token [start,end)</text>
<text x="162" y="546" class="sm" text-anchor="end">Δ前缀和</text>
<text x="162" y="564" class="sm" text-anchor="end">token bit</text>
<rect x="170" y="454" width="16" height="18" rx="2" class="acc1"/>
<text x="178.5" y="467" class="mono" text-anchor="middle">H</text>
<text x="178.5" y="486" class="bit" text-anchor="middle">1</text>
<rect x="187" y="454" width="16" height="18" rx="2" class="acc1"/>
<text x="195.5" y="467" class="mono" text-anchor="middle">e</text>
<text x="195.5" y="486" class="bit" text-anchor="middle">1</text>
<rect x="204" y="454" width="16" height="18" rx="2" class="acc1"/>
<text x="212.5" y="467" class="mono" text-anchor="middle">l</text>
<text x="212.5" y="486" class="bit" text-anchor="middle">1</text>
<rect x="221" y="454" width="16" height="18" rx="2" class="acc1"/>
<text x="229.5" y="467" class="mono" text-anchor="middle">l</text>
<text x="229.5" y="486" class="bit" text-anchor="middle">1</text>
<rect x="238" y="454" width="16" height="18" rx="2" class="acc1"/>
<text x="246.5" y="467" class="mono" text-anchor="middle">o</text>
<text x="246.5" y="486" class="bit" text-anchor="middle">1</text>
<rect x="255" y="454" width="16" height="18" rx="2" class="acc1"/>
<text x="263.5" y="467" class="mono" text-anchor="middle">&lt;</text>
<text x="263.5" y="486" class="bit" text-anchor="middle">1</text>
<rect x="272" y="454" width="16" height="18" rx="2" class="acc1"/>
<text x="280.5" y="467" class="mono" text-anchor="middle">|</text>
<text x="280.5" y="486" class="bit" text-anchor="middle">1</text>
<rect x="289" y="454" width="16" height="18" rx="2" class="acc1"/>
<text x="297.5" y="467" class="mono" text-anchor="middle">i</text>
<text x="297.5" y="486" class="bit" text-anchor="middle">1</text>
<rect x="306" y="454" width="16" height="18" rx="2" class="acc1"/>
<text x="314.5" y="467" class="mono" text-anchor="middle">m</text>
<text x="314.5" y="486" class="bit" text-anchor="middle">1</text>
<rect x="323" y="454" width="16" height="18" rx="2" class="acc1"/>
<text x="331.5" y="467" class="mono" text-anchor="middle">_</text>
<text x="331.5" y="486" class="bit" text-anchor="middle">1</text>
<rect x="340" y="454" width="16" height="18" rx="2" class="acc1"/>
<text x="348.5" y="467" class="mono" text-anchor="middle">e</text>
<text x="348.5" y="486" class="bit" text-anchor="middle">1</text>
<rect x="357" y="454" width="16" height="18" rx="2" class="acc1"/>
<text x="365.5" y="467" class="mono" text-anchor="middle">n</text>
<text x="365.5" y="486" class="bit" text-anchor="middle">1</text>
<rect x="374" y="454" width="16" height="18" rx="2" class="acc1"/>
<text x="382.5" y="467" class="mono" text-anchor="middle">d</text>
<text x="382.5" y="486" class="bit" text-anchor="middle">1</text>
<rect x="391" y="454" width="16" height="18" rx="2" class="acc1"/>
<text x="399.5" y="467" class="mono" text-anchor="middle">|</text>
<text x="399.5" y="486" class="bit" text-anchor="middle">1</text>
<rect x="408" y="454" width="16" height="18" rx="2" class="acc1"/>
<text x="416.5" y="467" class="mono" text-anchor="middle">&gt;</text>
<text x="416.5" y="486" class="bit" text-anchor="middle">1</text>
<rect x="425" y="454" width="16" height="18" rx="2" class="acc1"/>
<text x="433.5" y="467" class="mono" text-anchor="middle">↵</text>
<text x="433.5" y="486" class="bit" text-anchor="middle">1</text>
<rect x="442" y="454" width="16" height="18" rx="2" class="ghost"/>
<text x="450.5" y="467" class="mono" text-anchor="middle">&lt;</text>
<text x="450.5" y="486" class="bit" text-anchor="middle">0</text>
<rect x="459" y="454" width="16" height="18" rx="2" class="ghost"/>
<text x="467.5" y="467" class="mono" text-anchor="middle">|</text>
<text x="467.5" y="486" class="bit" text-anchor="middle">0</text>
<rect x="476" y="454" width="16" height="18" rx="2" class="ghost"/>
<text x="484.5" y="467" class="mono" text-anchor="middle">i</text>
<text x="484.5" y="486" class="bit" text-anchor="middle">0</text>
<rect x="493" y="454" width="16" height="18" rx="2" class="ghost"/>
<text x="501.5" y="467" class="mono" text-anchor="middle">m</text>
<text x="501.5" y="486" class="bit" text-anchor="middle">0</text>
<rect x="510" y="454" width="16" height="18" rx="2" class="ghost"/>
<text x="518.5" y="467" class="mono" text-anchor="middle">_</text>
<text x="518.5" y="486" class="bit" text-anchor="middle">0</text>
<rect x="527" y="454" width="16" height="18" rx="2" class="ghost"/>
<text x="535.5" y="467" class="mono" text-anchor="middle">s</text>
<text x="535.5" y="486" class="bit" text-anchor="middle">0</text>
<rect x="544" y="454" width="16" height="18" rx="2" class="ghost"/>
<text x="552.5" y="467" class="mono" text-anchor="middle">t</text>
<text x="552.5" y="486" class="bit" text-anchor="middle">0</text>
<rect x="561" y="454" width="16" height="18" rx="2" class="ghost"/>
<text x="569.5" y="467" class="mono" text-anchor="middle">a</text>
<text x="569.5" y="486" class="bit" text-anchor="middle">0</text>
<rect x="578" y="454" width="16" height="18" rx="2" class="ghost"/>
<text x="586.5" y="467" class="mono" text-anchor="middle">r</text>
<text x="586.5" y="486" class="bit" text-anchor="middle">0</text>
<rect x="595" y="454" width="16" height="18" rx="2" class="ghost"/>
<text x="603.5" y="467" class="mono" text-anchor="middle">t</text>
<text x="603.5" y="486" class="bit" text-anchor="middle">0</text>
<rect x="612" y="454" width="16" height="18" rx="2" class="ghost"/>
<text x="620.5" y="467" class="mono" text-anchor="middle">|</text>
<text x="620.5" y="486" class="bit" text-anchor="middle">0</text>
<rect x="629" y="454" width="16" height="18" rx="2" class="ghost"/>
<text x="637.5" y="467" class="mono" text-anchor="middle">&gt;</text>
<text x="637.5" y="486" class="bit" text-anchor="middle">0</text>
<rect x="646" y="454" width="16" height="18" rx="2" class="ghost"/>
<text x="654.5" y="467" class="mono" text-anchor="middle">u</text>
<text x="654.5" y="486" class="bit" text-anchor="middle">0</text>
<rect x="663" y="454" width="16" height="18" rx="2" class="ghost"/>
<text x="671.5" y="467" class="mono" text-anchor="middle">s</text>
<text x="671.5" y="486" class="bit" text-anchor="middle">0</text>
<rect x="680" y="454" width="16" height="18" rx="2" class="ghost"/>
<text x="688.5" y="467" class="mono" text-anchor="middle">e</text>
<text x="688.5" y="486" class="bit" text-anchor="middle">0</text>
<rect x="697" y="454" width="16" height="18" rx="2" class="ghost"/>
<text x="705.5" y="467" class="mono" text-anchor="middle">r</text>
<text x="705.5" y="486" class="bit" text-anchor="middle">0</text>
<rect x="170" y="504" width="84" height="20" rx="3" class="acc1"/>
<text x="212" y="518" class="mono" text-anchor="middle">Hello</text>
<text x="212" y="546" class="mono" text-anchor="middle">5</text>
<text x="212" y="564" class="bit" text-anchor="middle">1</text>
<rect x="255" y="504" width="169" height="20" rx="3" class="acc1"/>
<text x="339.5" y="518" class="mono" text-anchor="middle">&lt;|im_end|&gt;</text>
<text x="339.5" y="546" class="mono" text-anchor="middle">10</text>
<text x="339.5" y="564" class="bit" text-anchor="middle">1</text>
<rect x="425" y="504" width="16" height="20" rx="3" class="acc1"/>
<text x="433" y="518" class="mono" text-anchor="middle">↵</text>
<text x="433" y="546" class="mono" text-anchor="middle">1</text>
<text x="433" y="564" class="bit" text-anchor="middle">1</text>
<rect x="442" y="504" width="203" height="20" rx="3" class="ghost"/>
<text x="543.5" y="518" class="mono" text-anchor="middle">&lt;|im_start|&gt;</text>
<text x="543.5" y="546" class="mono" text-anchor="middle">0</text>
<text x="543.5" y="564" class="bit" text-anchor="middle">0</text>
<rect x="646" y="504" width="67" height="20" rx="3" class="ghost"/>
<text x="679.5" y="518" class="mono" text-anchor="middle">user</text>
<text x="679.5" y="546" class="mono" text-anchor="middle">0</text>
<text x="679.5" y="564" class="bit" text-anchor="middle">0</text>
<rect x="20" y="592" width="1160" height="232" rx="8" class="zoom"/>
<text x="30" y="612" class="pt" text-anchor="start">前缀规则（m4）：content 以 &lt;think&gt;↵ 开头时只排除这 8 个字符，mask 从字符 188 开始</text>
<text x="162" y="638" class="sm" text-anchor="end">字符</text>
<text x="162" y="656" class="sm" text-anchor="end">char_mask</text>
<text x="162" y="688" class="sm" text-anchor="end">token [start,end)</text>
<text x="162" y="716" class="sm" text-anchor="end">Δ前缀和</text>
<text x="162" y="734" class="sm" text-anchor="end">token bit</text>
<rect x="170" y="624" width="16" height="18" rx="2" class="ghost"/>
<text x="178.5" y="637" class="mono" text-anchor="middle">&lt;</text>
<text x="178.5" y="656" class="bit" text-anchor="middle">0</text>
<rect x="187" y="624" width="16" height="18" rx="2" class="ghost"/>
<text x="195.5" y="637" class="mono" text-anchor="middle">|</text>
<text x="195.5" y="656" class="bit" text-anchor="middle">0</text>
<rect x="204" y="624" width="16" height="18" rx="2" class="ghost"/>
<text x="212.5" y="637" class="mono" text-anchor="middle">i</text>
<text x="212.5" y="656" class="bit" text-anchor="middle">0</text>
<rect x="221" y="624" width="16" height="18" rx="2" class="ghost"/>
<text x="229.5" y="637" class="mono" text-anchor="middle">m</text>
<text x="229.5" y="656" class="bit" text-anchor="middle">0</text>
<rect x="238" y="624" width="16" height="18" rx="2" class="ghost"/>
<text x="246.5" y="637" class="mono" text-anchor="middle">_</text>
<text x="246.5" y="656" class="bit" text-anchor="middle">0</text>
<rect x="255" y="624" width="16" height="18" rx="2" class="ghost"/>
<text x="263.5" y="637" class="mono" text-anchor="middle">s</text>
<text x="263.5" y="656" class="bit" text-anchor="middle">0</text>
<rect x="272" y="624" width="16" height="18" rx="2" class="ghost"/>
<text x="280.5" y="637" class="mono" text-anchor="middle">t</text>
<text x="280.5" y="656" class="bit" text-anchor="middle">0</text>
<rect x="289" y="624" width="16" height="18" rx="2" class="ghost"/>
<text x="297.5" y="637" class="mono" text-anchor="middle">a</text>
<text x="297.5" y="656" class="bit" text-anchor="middle">0</text>
<rect x="306" y="624" width="16" height="18" rx="2" class="ghost"/>
<text x="314.5" y="637" class="mono" text-anchor="middle">r</text>
<text x="314.5" y="656" class="bit" text-anchor="middle">0</text>
<rect x="323" y="624" width="16" height="18" rx="2" class="ghost"/>
<text x="331.5" y="637" class="mono" text-anchor="middle">t</text>
<text x="331.5" y="656" class="bit" text-anchor="middle">0</text>
<rect x="340" y="624" width="16" height="18" rx="2" class="ghost"/>
<text x="348.5" y="637" class="mono" text-anchor="middle">|</text>
<text x="348.5" y="656" class="bit" text-anchor="middle">0</text>
<rect x="357" y="624" width="16" height="18" rx="2" class="ghost"/>
<text x="365.5" y="637" class="mono" text-anchor="middle">&gt;</text>
<text x="365.5" y="656" class="bit" text-anchor="middle">0</text>
<rect x="374" y="624" width="16" height="18" rx="2" class="ghost"/>
<text x="382.5" y="637" class="mono" text-anchor="middle">a</text>
<text x="382.5" y="656" class="bit" text-anchor="middle">0</text>
<rect x="391" y="624" width="16" height="18" rx="2" class="ghost"/>
<text x="399.5" y="637" class="mono" text-anchor="middle">s</text>
<text x="399.5" y="656" class="bit" text-anchor="middle">0</text>
<rect x="408" y="624" width="16" height="18" rx="2" class="ghost"/>
<text x="416.5" y="637" class="mono" text-anchor="middle">s</text>
<text x="416.5" y="656" class="bit" text-anchor="middle">0</text>
<rect x="425" y="624" width="16" height="18" rx="2" class="ghost"/>
<text x="433.5" y="637" class="mono" text-anchor="middle">i</text>
<text x="433.5" y="656" class="bit" text-anchor="middle">0</text>
<rect x="442" y="624" width="16" height="18" rx="2" class="ghost"/>
<text x="450.5" y="637" class="mono" text-anchor="middle">s</text>
<text x="450.5" y="656" class="bit" text-anchor="middle">0</text>
<rect x="459" y="624" width="16" height="18" rx="2" class="ghost"/>
<text x="467.5" y="637" class="mono" text-anchor="middle">t</text>
<text x="467.5" y="656" class="bit" text-anchor="middle">0</text>
<rect x="476" y="624" width="16" height="18" rx="2" class="ghost"/>
<text x="484.5" y="637" class="mono" text-anchor="middle">a</text>
<text x="484.5" y="656" class="bit" text-anchor="middle">0</text>
<rect x="493" y="624" width="16" height="18" rx="2" class="ghost"/>
<text x="501.5" y="637" class="mono" text-anchor="middle">n</text>
<text x="501.5" y="656" class="bit" text-anchor="middle">0</text>
<rect x="510" y="624" width="16" height="18" rx="2" class="ghost"/>
<text x="518.5" y="637" class="mono" text-anchor="middle">t</text>
<text x="518.5" y="656" class="bit" text-anchor="middle">0</text>
<rect x="527" y="624" width="16" height="18" rx="2" class="ghost"/>
<text x="535.5" y="637" class="mono" text-anchor="middle">↵</text>
<text x="535.5" y="656" class="bit" text-anchor="middle">0</text>
<rect x="544" y="624" width="16" height="18" rx="2" class="ghost"/>
<text x="552.5" y="637" class="mono" text-anchor="middle">&lt;</text>
<text x="552.5" y="656" class="bit" text-anchor="middle">0</text>
<rect x="561" y="624" width="16" height="18" rx="2" class="ghost"/>
<text x="569.5" y="637" class="mono" text-anchor="middle">t</text>
<text x="569.5" y="656" class="bit" text-anchor="middle">0</text>
<rect x="578" y="624" width="16" height="18" rx="2" class="ghost"/>
<text x="586.5" y="637" class="mono" text-anchor="middle">h</text>
<text x="586.5" y="656" class="bit" text-anchor="middle">0</text>
<rect x="595" y="624" width="16" height="18" rx="2" class="ghost"/>
<text x="603.5" y="637" class="mono" text-anchor="middle">i</text>
<text x="603.5" y="656" class="bit" text-anchor="middle">0</text>
<rect x="612" y="624" width="16" height="18" rx="2" class="ghost"/>
<text x="620.5" y="637" class="mono" text-anchor="middle">n</text>
<text x="620.5" y="656" class="bit" text-anchor="middle">0</text>
<rect x="629" y="624" width="16" height="18" rx="2" class="ghost"/>
<text x="637.5" y="637" class="mono" text-anchor="middle">k</text>
<text x="637.5" y="656" class="bit" text-anchor="middle">0</text>
<rect x="646" y="624" width="16" height="18" rx="2" class="ghost"/>
<text x="654.5" y="637" class="mono" text-anchor="middle">&gt;</text>
<text x="654.5" y="656" class="bit" text-anchor="middle">0</text>
<rect x="663" y="624" width="16" height="18" rx="2" class="ghost"/>
<text x="671.5" y="637" class="mono" text-anchor="middle">↵</text>
<text x="671.5" y="656" class="bit" text-anchor="middle">0</text>
<rect x="680" y="624" width="16" height="18" rx="2" class="acc1"/>
<text x="688.5" y="637" class="mono" text-anchor="middle">↵</text>
<text x="688.5" y="656" class="bit" text-anchor="middle">1</text>
<rect x="697" y="624" width="16" height="18" rx="2" class="acc1"/>
<text x="705.5" y="637" class="mono" text-anchor="middle">&lt;</text>
<text x="705.5" y="656" class="bit" text-anchor="middle">1</text>
<rect x="714" y="624" width="16" height="18" rx="2" class="acc1"/>
<text x="722.5" y="637" class="mono" text-anchor="middle">/</text>
<text x="722.5" y="656" class="bit" text-anchor="middle">1</text>
<rect x="731" y="624" width="16" height="18" rx="2" class="acc1"/>
<text x="739.5" y="637" class="mono" text-anchor="middle">t</text>
<text x="739.5" y="656" class="bit" text-anchor="middle">1</text>
<rect x="748" y="624" width="16" height="18" rx="2" class="acc1"/>
<text x="756.5" y="637" class="mono" text-anchor="middle">h</text>
<text x="756.5" y="656" class="bit" text-anchor="middle">1</text>
<rect x="765" y="624" width="16" height="18" rx="2" class="acc1"/>
<text x="773.5" y="637" class="mono" text-anchor="middle">i</text>
<text x="773.5" y="656" class="bit" text-anchor="middle">1</text>
<rect x="782" y="624" width="16" height="18" rx="2" class="acc1"/>
<text x="790.5" y="637" class="mono" text-anchor="middle">n</text>
<text x="790.5" y="656" class="bit" text-anchor="middle">1</text>
<rect x="799" y="624" width="16" height="18" rx="2" class="acc1"/>
<text x="807.5" y="637" class="mono" text-anchor="middle">k</text>
<text x="807.5" y="656" class="bit" text-anchor="middle">1</text>
<rect x="816" y="624" width="16" height="18" rx="2" class="acc1"/>
<text x="824.5" y="637" class="mono" text-anchor="middle">&gt;</text>
<text x="824.5" y="656" class="bit" text-anchor="middle">1</text>
<rect x="833" y="624" width="16" height="18" rx="2" class="acc1"/>
<text x="841.5" y="637" class="mono" text-anchor="middle">↵</text>
<text x="841.5" y="656" class="bit" text-anchor="middle">1</text>
<rect x="850" y="624" width="16" height="18" rx="2" class="acc1"/>
<text x="858.5" y="637" class="mono" text-anchor="middle">↵</text>
<text x="858.5" y="656" class="bit" text-anchor="middle">1</text>
<rect x="867" y="624" width="16" height="18" rx="2" class="acc1"/>
<text x="875.5" y="637" class="mono" text-anchor="middle">&lt;</text>
<text x="875.5" y="656" class="bit" text-anchor="middle">1</text>
<rect x="884" y="624" width="16" height="18" rx="2" class="acc1"/>
<text x="892.5" y="637" class="mono" text-anchor="middle">t</text>
<text x="892.5" y="656" class="bit" text-anchor="middle">1</text>
<rect x="901" y="624" width="16" height="18" rx="2" class="acc1"/>
<text x="909.5" y="637" class="mono" text-anchor="middle">o</text>
<text x="909.5" y="656" class="bit" text-anchor="middle">1</text>
<rect x="918" y="624" width="16" height="18" rx="2" class="acc1"/>
<text x="926.5" y="637" class="mono" text-anchor="middle">o</text>
<text x="926.5" y="656" class="bit" text-anchor="middle">1</text>
<rect x="935" y="624" width="16" height="18" rx="2" class="acc1"/>
<text x="943.5" y="637" class="mono" text-anchor="middle">l</text>
<text x="943.5" y="656" class="bit" text-anchor="middle">1</text>
<rect x="952" y="624" width="16" height="18" rx="2" class="acc1"/>
<text x="960.5" y="637" class="mono" text-anchor="middle">_</text>
<text x="960.5" y="656" class="bit" text-anchor="middle">1</text>
<rect x="969" y="624" width="16" height="18" rx="2" class="acc1"/>
<text x="977.5" y="637" class="mono" text-anchor="middle">c</text>
<text x="977.5" y="656" class="bit" text-anchor="middle">1</text>
<rect x="986" y="624" width="16" height="18" rx="2" class="acc1"/>
<text x="994.5" y="637" class="mono" text-anchor="middle">a</text>
<text x="994.5" y="656" class="bit" text-anchor="middle">1</text>
<rect x="1003" y="624" width="16" height="18" rx="2" class="acc1"/>
<text x="1011.5" y="637" class="mono" text-anchor="middle">l</text>
<text x="1011.5" y="656" class="bit" text-anchor="middle">1</text>
<rect x="1020" y="624" width="16" height="18" rx="2" class="acc1"/>
<text x="1028.5" y="637" class="mono" text-anchor="middle">l</text>
<text x="1028.5" y="656" class="bit" text-anchor="middle">1</text>
<rect x="1037" y="624" width="16" height="18" rx="2" class="acc1"/>
<text x="1045.5" y="637" class="mono" text-anchor="middle">&gt;</text>
<text x="1045.5" y="656" class="bit" text-anchor="middle">1</text>
<rect x="170" y="674" width="203" height="20" rx="3" class="ghost"/>
<text x="271.5" y="688" class="mono" text-anchor="middle">&lt;|im_start|&gt;</text>
<text x="271.5" y="716" class="mono" text-anchor="middle">0</text>
<text x="271.5" y="734" class="bit" text-anchor="middle">0</text>
<rect x="374" y="674" width="152" height="20" rx="3" class="ghost"/>
<text x="450" y="688" class="mono" text-anchor="middle">assistant</text>
<text x="450" y="716" class="mono" text-anchor="middle">0</text>
<text x="450" y="734" class="bit" text-anchor="middle">0</text>
<rect x="527" y="674" width="16" height="20" rx="3" class="ghost"/>
<text x="535" y="688" class="mono" text-anchor="middle">↵</text>
<text x="535" y="716" class="mono" text-anchor="middle">0</text>
<text x="535" y="734" class="bit" text-anchor="middle">0</text>
<rect x="544" y="674" width="118" height="20" rx="3" class="ghost"/>
<text x="603" y="688" class="mono" text-anchor="middle">&lt;think&gt;</text>
<text x="603" y="716" class="mono" text-anchor="middle">0</text>
<text x="603" y="734" class="bit" text-anchor="middle">0</text>
<rect x="663" y="674" width="33" height="20" rx="3" class="acc2"/>
<text x="679.5" y="688" class="mono" text-anchor="middle">↵↵</text>
<text x="679.5" y="716" class="mono" text-anchor="middle">1</text>
<text x="679.5" y="734" class="bit" text-anchor="middle">1</text>
<rect x="697" y="674" width="135" height="20" rx="3" class="acc1"/>
<text x="764.5" y="688" class="mono" text-anchor="middle">&lt;/think&gt;</text>
<text x="764.5" y="716" class="mono" text-anchor="middle">8</text>
<text x="764.5" y="734" class="bit" text-anchor="middle">1</text>
<rect x="833" y="674" width="33" height="20" rx="3" class="acc1"/>
<text x="849.5" y="688" class="mono" text-anchor="middle">↵↵</text>
<text x="849.5" y="716" class="mono" text-anchor="middle">2</text>
<text x="849.5" y="734" class="bit" text-anchor="middle">1</text>
<rect x="867" y="674" width="186" height="20" rx="3" class="acc1"/>
<text x="960" y="688" class="mono" text-anchor="middle">&lt;tool_call&gt;</text>
<text x="960" y="716" class="mono" text-anchor="middle">11</text>
<text x="960" y="734" class="bit" text-anchor="middle">1</text>
<text x="162" y="768" class="sm" text-anchor="end">若 ↵↵ 拆成两个 token</text>
<rect x="663" y="754" width="16" height="20" rx="3" class="acc2d"/>
<text x="671" y="768" class="mono" text-anchor="middle">↵</text>
<text x="671" y="792" class="mono" text-anchor="middle">0</text>
<text x="671" y="810" class="bit" text-anchor="middle">0</text>
<rect x="680" y="754" width="16" height="20" rx="3" class="acc2"/>
<text x="688" y="768" class="mono" text-anchor="middle">↵</text>
<text x="688" y="792" class="mono" text-anchor="middle">1</text>
<text x="688" y="810" class="bit" text-anchor="middle">1</text>
<rect x="833" y="754" width="16" height="20" rx="3" class="acc2"/>
<text x="841" y="768" class="mono" text-anchor="middle">↵</text>
<text x="841" y="792" class="mono" text-anchor="middle">1</text>
<text x="841" y="810" class="bit" text-anchor="middle">1</text>
<rect x="850" y="754" width="16" height="20" rx="3" class="acc2"/>
<text x="858" y="768" class="mono" text-anchor="middle">↵</text>
<text x="858" y="792" class="mono" text-anchor="middle">1</text>
<text x="858" y="810" class="bit" text-anchor="middle">1</text>
<text x="30" y="844" class="tx" text-anchor="start">跨界 token：↵↵ 占字符 [187,189)，其中 187 属于被排除的前缀、188 在 span 内，前缀和差为 1 &gt; 0，于是整个 token 置 1</text>
<text x="30" y="864" class="tx" text-anchor="start">↵↵ 是一个预分词片段（Qwen2 预分词正则）；它是否为单个词表项取决于 tokenizer，本机未核验。拆开时变为 0 与 1，被训练的字符不变</text>
<text x="30" y="888" class="su" text-anchor="start">模板：vLLM@199cb9b9 qwen3.jinja（Qwen3-0.6B 夹具）· id：SGLang v0.5.15.post1 Qwen3 tokenizer 夹具 · 规则：slime@4c193f1f mask_utils.py</text>
</svg>
