<svg xmlns="http://www.w3.org/2000/svg" viewBox="0 0 1190 680" role="img"><style>text{font-family:Inter,"Noto Sans CJK SC","PingFang SC",sans-serif;fill:#162033}.title{font-size:26px;font-weight:750}.head{font-size:17px;font-weight:700}.body{font-size:15px}.small{font-size:13px;fill:#53627a}.num{font-variant-numeric:tabular-nums}.box{fill:#fff;stroke:#b7c4d4;stroke-width:1.5}.blue{fill:#e8f2ff;stroke:#1757a5;stroke-width:1.5}.orange{fill:#fff1db;stroke:#a65e0c;stroke-width:1.5}.ghost{fill:#f6f8fb;stroke:#b7c4d4;stroke-width:1}.arrow{stroke:#1757a5;stroke-width:2;fill:none;marker-end:url(#arrow)}.aux{stroke:#b7c4d4;stroke-width:1.5;fill:none;marker-end:url(#arrowGray)}.dash{stroke-dasharray:5 5}</style><defs><marker id="arrow" markerWidth="9" markerHeight="9" refX="8" refY="4.5" orient="auto"><path d="M0,0 L9,4.5 L0,9" fill="#1757a5"/></marker><marker id="arrowGray" markerWidth="9" markerHeight="9" refX="8" refY="4.5" orient="auto"><path d="M0,0 L9,4.5 L0,9" fill="#b7c4d4"/></marker></defs><rect width="1190" height="680" fill="#ffffff"/><text class="title" x="40" y="48" text-anchor="start">CPP：3 个层 Stage × 4 个连续 Chunk</text><text class="small" x="40" y="78" text-anchor="start">教学假设：每个 Stage/Chunk 任务耗时相同，跨级激活在格边界就绪</text><text class="head" x="282.5" y="145" text-anchor="middle">时间格 1</text><text class="head" x="427.5" y="145" text-anchor="middle">时间格 2</text><text class="head" x="572.5" y="145" text-anchor="middle">时间格 3</text><text class="head" x="717.5" y="145" text-anchor="middle">时间格 4</text><text class="head" x="862.5" y="145" text-anchor="middle">时间格 5</text><text class="head" x="1007.5" y="145" text-anchor="middle">时间格 6</text><text class="head" x="165" y="229" text-anchor="end">Stage 0</text><rect class="blue" x="213" y="181" width="137" height="84" rx="5"/><text class="head" x="282.5" y="216" text-anchor="middle">C1</text><text class="small" x="282.5" y="240" text-anchor="middle">本地 KV 至 C1</text><rect class="blue" x="358" y="181" width="137" height="84" rx="5"/><text class="head" x="427.5" y="216" text-anchor="middle">C2</text><text class="small" x="427.5" y="240" text-anchor="middle">本地 KV 至 C2</text><rect class="blue" x="503" y="181" width="137" height="84" rx="5"/><text class="head" x="572.5" y="216" text-anchor="middle">C3</text><text class="small" x="572.5" y="240" text-anchor="middle">本地 KV 至 C3</text><rect class="blue" x="648" y="181" width="137" height="84" rx="5"/><text class="head" x="717.5" y="216" text-anchor="middle">C4</text><text class="small" x="717.5" y="240" text-anchor="middle">本地 KV 至 C4</text><rect class="ghost" x="793" y="181" width="137" height="84" rx="5"/><text class="small" x="862.5" y="230" text-anchor="middle">空</text><rect class="ghost" x="938" y="181" width="137" height="84" rx="5"/><text class="small" x="1007.5" y="230" text-anchor="middle">空</text><text class="head" x="165" y="321" text-anchor="end">Stage 1</text><rect class="ghost" x="213" y="273" width="137" height="84" rx="5"/><text class="small" x="282.5" y="322" text-anchor="middle">空</text><rect class="blue" x="358" y="273" width="137" height="84" rx="5"/><text class="head" x="427.5" y="308" text-anchor="middle">C1</text><text class="small" x="427.5" y="332" text-anchor="middle">本地 KV 至 C1</text><rect class="blue" x="503" y="273" width="137" height="84" rx="5"/><text class="head" x="572.5" y="308" text-anchor="middle">C2</text><text class="small" x="572.5" y="332" text-anchor="middle">本地 KV 至 C2</text><rect class="blue" x="648" y="273" width="137" height="84" rx="5"/><text class="head" x="717.5" y="308" text-anchor="middle">C3</text><text class="small" x="717.5" y="332" text-anchor="middle">本地 KV 至 C3</text><rect class="blue" x="793" y="273" width="137" height="84" rx="5"/><text class="head" x="862.5" y="308" text-anchor="middle">C4</text><text class="small" x="862.5" y="332" text-anchor="middle">本地 KV 至 C4</text><rect class="ghost" x="938" y="273" width="137" height="84" rx="5"/><text class="small" x="1007.5" y="322" text-anchor="middle">空</text><text class="head" x="165" y="413" text-anchor="end">Stage 2</text><rect class="ghost" x="213" y="365" width="137" height="84" rx="5"/><text class="small" x="282.5" y="414" text-anchor="middle">空</text><rect class="ghost" x="358" y="365" width="137" height="84" rx="5"/><text class="small" x="427.5" y="414" text-anchor="middle">空</text><rect class="blue" x="503" y="365" width="137" height="84" rx="5"/><text class="head" x="572.5" y="400" text-anchor="middle">C1</text><text class="small" x="572.5" y="424" text-anchor="middle">本地 KV 至 C1</text><rect class="blue" x="648" y="365" width="137" height="84" rx="5"/><text class="head" x="717.5" y="400" text-anchor="middle">C2</text><text class="small" x="717.5" y="424" text-anchor="middle">本地 KV 至 C2</text><rect class="blue" x="793" y="365" width="137" height="84" rx="5"/><text class="head" x="862.5" y="400" text-anchor="middle">C3</text><text class="small" x="862.5" y="424" text-anchor="middle">本地 KV 至 C3</text><rect class="blue" x="938" y="365" width="137" height="84" rx="5"/><text class="head" x="1007.5" y="400" text-anchor="middle">C4</text><text class="small" x="1007.5" y="424" text-anchor="middle">本地 KV 至 C4</text><path class="arrow" d="M490 264 L503 274"/><path class="arrow" d="M493 316 L503 316"/><rect class="box" x="75" y="497" width="550" height="105" rx="9"/><text class="head" x="100" y="531" text-anchor="start">S1 的 C2 在格 3 才能开始</text><text class="body" x="100" y="558" text-anchor="start">须等 S0 的 C2 激活（格 2）</text><text class="body" x="100" y="581" text-anchor="start">也须等 S1 的 C1 历史 KV（格 2）</text><rect class="orange" x="651" y="497" width="465" height="105" rx="9"/><text class="head" x="675" y="531" text-anchor="start">完成边界：S2 的 C4，格 6</text><text class="body" x="675" y="558" text-anchor="start">忙格 12，空格 6，理想气泡 33.3%</text><text class="small" x="675" y="581" text-anchor="start">等时均衡假设；后块实际可能更慢</text><text class="small" x="596" y="652" text-anchor="middle">横向：同一 Stage 先前 Chunk 写 KV　　纵向：同一 Chunk 从上游 Stage 收激活</text></svg>
